<svg 
 xmlns="http://www.w3.org/2000/svg"
 xmlns:xlink="http://www.w3.org/1999/xlink"
 width="0.776cm" height="0.459cm">
<path fill-rule="evenodd"  fill="rgb(0, 108, 172)"
 d="M18.937,8.264 C19.659,9.018 20.430,9.709 21.083,10.535 C21.369,10.900 21.654,11.266 21.861,11.693 C22.160,12.295 21.893,12.945 21.369,12.998 L18.167,12.986 C17.338,13.068 16.686,12.712 16.132,12.122 C15.687,11.654 15.273,11.144 14.848,10.666 C14.671,10.464 14.482,10.269 14.266,10.128 C13.830,9.832 13.455,9.913 13.199,10.393 C12.941,10.881 12.893,11.420 12.863,11.959 C12.833,12.743 12.596,12.945 11.846,12.986 C10.224,13.068 8.693,12.812 7.260,11.959 C5.995,11.206 5.027,10.139 4.177,8.947 C2.517,6.595 1.253,4.030 0.107,1.374 C-0.140,0.784 0.047,0.468 0.670,0.448 C1.717,0.428 2.765,0.428 3.812,0.448 C4.227,0.459 4.523,0.713 4.682,1.130 C5.245,2.586 5.936,3.969 6.806,5.241 C7.043,5.587 7.280,5.923 7.606,6.167 C7.980,6.442 8.267,6.340 8.435,5.913 C8.554,5.638 8.593,5.343 8.623,5.048 C8.701,4.040 8.711,3.032 8.573,2.025 C8.484,1.394 8.148,0.987 7.546,0.875 C7.229,0.813 7.288,0.692 7.427,0.509 C7.693,0.193 7.931,-0.000 8.405,-0.000 L12.041,-0.000 C12.603,0.123 12.732,0.377 12.812,0.987 L12.812,5.180 C12.812,5.414 12.932,6.096 13.326,6.259 C13.652,6.371 13.859,6.096 14.047,5.883 C14.917,4.926 15.529,3.786 16.083,2.616 C16.330,2.097 16.537,1.557 16.745,1.018 C16.893,0.621 17.131,0.428 17.564,0.438 L21.051,0.438 C21.150,0.438 21.260,0.438 21.368,0.459 C21.950,0.560 22.107,0.825 21.932,1.425 C21.644,2.362 21.081,3.155 20.537,3.928 C19.954,4.773 19.342,5.587 18.768,6.442 C18.234,7.206 18.275,7.592 18.937,8.264 Z"/>
</svg>