<svg xmlns="http://www.w3.org/2000/svg" width="22" height="13" viewBox="0 0 22 13">
  <metadata><?xpacket begin="﻿" id="W5M0MpCehiHzreSzNTczkc9d"?>
<x:xmpmeta xmlns:x="adobe:ns:meta/" x:xmptk="Adobe XMP Core 5.6-c138 79.159824, 2016/09/14-01:09:01        ">
   <rdf:RDF xmlns:rdf="http://www.w3.org/1999/02/22-rdf-syntax-ns#">
      <rdf:Description rdf:about=""/>
   </rdf:RDF>
</x:xmpmeta>
                                                                                                    
                                                                                                    
                                                                                                    
                                                                                                    
                                                                                                    
                                                                                                    
                                                                                                    
                                                                                                    
                                                                                                    
                                                                                                    
                                                                                                    
                                                                                                    
                                                                                                    
                                                                                                    
                                                                                                    
                                                                                                    
                                                                                                    
                                                                                                    
                                                                                                    
                                                                                                    
                           
<?xpacket end="w"?></metadata>
<defs>
    <style>
      .cls-1 {
        fill: #006cac;
        fill-rule: evenodd;
      }
    </style>
  </defs>
  <path id="Контур" class="cls-1" d="M1105.94,1194.26c0.72,0.76,1.49,1.45,2.14,2.28a6.462,6.462,0,0,1,.78,1.15,0.853,0.853,0,0,1-.49,1.31l-3.2-.01a2.4,2.4,0,0,1-2.04-.87c-0.44-.47-0.86-0.98-1.28-1.45a2.932,2.932,0,0,0-.58-0.54,0.655,0.655,0,0,0-1.07.26,3.7,3.7,0,0,0-.34,1.57,0.866,0.866,0,0,1-1.01,1.03,7.933,7.933,0,0,1-4.59-1.03,10.4,10.4,0,0,1-3.08-3.01,40.911,40.911,0,0,1-4.07-7.58c-0.25-.59-0.06-0.9.56-0.92,1.05-.02,2.1-0.02,3.14,0a0.931,0.931,0,0,1,.87.68,20.256,20.256,0,0,0,2.13,4.11,3.583,3.583,0,0,0,.8.93,0.483,0.483,0,0,0,.83-0.26,3.138,3.138,0,0,0,.18-0.86,13.957,13.957,0,0,0-.05-3.03,1.229,1.229,0,0,0-1.02-1.15c-0.32-.06-0.26-0.18-0.12-0.36a1.122,1.122,0,0,1,.97-0.51h3.64a0.9,0.9,0,0,1,.77.99v4.19a1.294,1.294,0,0,0,.52,1.08,0.692,0.692,0,0,0,.72-0.38,12.745,12.745,0,0,0,2.03-3.26c0.25-.52.46-1.06,0.67-1.6a0.753,0.753,0,0,1,.81-0.58h3.49a1.774,1.774,0,0,1,.32.02,0.625,0.625,0,0,1,.56.96,9.319,9.319,0,0,1-1.39,2.51c-0.59.84-1.2,1.66-1.77,2.51A1.151,1.151,0,0,0,1105.94,1194.26Z" transform="translate(-1087 -1186)"/>
</svg>
